#!OML:ASF F:\VICON\USERDATA\INSTALL\rory3\rory3.ASF
:FULLY-SPECIFIED
:DEGREES
583
root 0.0393986 17.9156 -0.748007 1.51398 -7.66564 3.64208
lowerback -0.414078 -1.70463 -5.37978
upperback -0.376109 -2.26251 2.82646
thorax 0.167749 -1.13169 5.93512
lowerneck -26.525 1.67795 -9.68301
upperneck -0.0509224 4.60229 6.40109
head 3.64893 2.64056 4.03475
rclavicle -4.79071e-014 2.38542e-015
rhumerus -33.8712 -5.84889 -75.9351
rradius 34.1677
rwrist 19.1821
rhand -22.0718 6.04324
rfingers 7.12502
rthumb 4.33946 -23.8923
lclavicle -4.79071e-014 2.38542e-015
lhumerus 59.5515 10.6636 55.4884
lradius 95.8519
lwrist -5.39436
lhand -31.7784 6.72623
lfingers 7.12502
lthumb -5.03475 36.6464
rfemur -7.9671 6.46721 12.1548
rtibia 27.7858
rfoot -18.4093 -2.683
rtoes 3.49783
lfemur 1.26678 -1.98465 -24.4418
ltibia 11.7344
lfoot -10.5122 3.39412
ltoes -11.7619
584
root 0.0397728 17.9158 -0.747157 1.53394 -7.65829 3.65574
lowerback -0.454088 -1.69282 -5.38082
upperback -0.355421 -2.24461 2.79762
thorax 0.207905 -1.12452 5.90397
lowerneck -26.589 1.66391 -9.68097
upperneck -0.0329016 4.5853 6.44926
head 3.66398 2.63615 4.05046
rclavicle -1.22998e-014 3.18055e-015
rhumerus -33.8397 -5.93209 -75.9589
rradius 34.1741
rwrist 19.1921
rhand -22.1739 6.23534
rfingers 7.12502
rthumb 4.24082 -23.7022
lclavicle -1.22998e-014 3.18055e-015
lhumerus 59.6157 10.6002 55.4852
lradius 95.7866
lwrist -5.55833
lhand -31.974 6.73503
lfingers 7.12502
lthumb -5.22365 36.6506
rfemur -7.97962 6.44733 12.1331
rtibia 27.7737
rfoot -18.4345 -2.66725
rtoes 3.50781
lfemur 1.24172 -1.96387 -24.4512
ltibia 11.7351
lfoot -10.5174 3.34652
ltoes -11.4644
585
root 0.0411362 17.9166 -0.744771 1.52803 -7.64543 3.70438
lowerback -0.451952 -1.71725 -5.42832
upperback -0.384785 -2.27745 2.80321
thorax 0.183095 -1.1394 5.93707
lowerneck -26.5792 1.68117 -9.69229
upperneck 0.033059 4.61171 6.41575
head 3.68149 2.64546 4.04456
rclavicle 5.7896e-015 2.3059e-014
rhumerus -33.87 -5.85927 -75.9418
rradius 34.1709
rwrist 19.2317
rhand -22.2775 6.65205
rfingers 7.12502
rthumb 4.1408 -23.2875
lclavicle 5.7896e-015 2.3059e-014
lhumerus 59.5165 10.6116 55.472
lradius 95.7987
lwrist -5.49787
lhand -31.8726 6.91431
lfingers 7.12502
lthumb -5.12574 36.8323
rfemur -7.96613 6.4102 12.0733
rtibia 27.7658
rfoot -18.4369 -2.67819
rtoes 3.22526
lfemur 1.24313 -2.06144 -24.5238
ltibia 11.7531
lfoot -10.5272 3.42939
ltoes -11.3507
586
root 0.0422793 17.9169 -0.746127 1.52661 -7.63252 3.67968
lowerback -0.409965 -1.72905 -5.41323
upperback -0.410713 -2.2955 2.82857
thorax 0.135777 -1.14625 5.95672
lowerneck -26.5938 1.68841 -9.71603
upperneck 0.0845866 4.6307 6.39033
head 3.69789 2.65216 4.0429
rclavicle 1.63252e-014 -1.82882e-014
rhumerus -33.8891 -5.78096 -75.9288
rradius 34.1714
rwrist 19.1983
rhand -22.3202 6.64477
rfingers 7.12502
rthumb 4.09957 -23.2955
lclavicle 1.63252e-014 -1.82882e-014
lhumerus 59.4344 10.6127 55.4541
lradius 95.7794
lwrist -5.6639
lhand -31.8627 7.06033
lfingers 7.12502
lthumb -5.11614 36.9786
rfemur -7.96125 6.42856 12.1014
rtibia 27.751
rfoot -18.425 -2.72575
rtoes 3.05132
lfemur 1.23269 -2.10426 -24.5076
ltibia 11.7772
lfoot -10.5287 3.44407
ltoes -11.4585
587
root 0.04269 17.9169 -0.748895 1.51134 -7.64684 3.65234
lowerback -0.372061 -1.70813 -5.38278
upperback -0.394232 -2.26922 2.81304
thorax 0.125961 -1.13316 5.92436
lowerneck -26.5968 1.70429 -9.64458
upperneck 0.040586 4.63418 6.3401
head 3.68658 2.65146 4.01502
rclavicle -1.63997e-015 9.54166e-015
rhumerus -33.8839 -5.78921 -75.9634
rradius 34.1817
rwrist 19.1944
rhand -22.3118 6.32627
rfingers 7.12502
rthumb 4.10767 -23.6139
lclavicle -1.63997e-015 9.54166e-015
lhumerus 59.4629 10.5602 55.437
lradius 95.6853
lwrist -5.99905
lhand -32.0838 6.97703
lfingers 7.12502
lthumb -5.32966 36.89
rfemur -7.9565 6.51643 12.1418
rtibia 27.7347
rfoot -18.3944 -2.801
rtoes 2.9966
lfemur 1.22281 -2.03377 -24.4724
ltibia 11.8012
lfoot -10.5158 3.38386
ltoes -11.5668
588
root 0.0438176 17.9171 -0.748105 1.5235 -7.64264 3.59037
lowerback -0.408347 -1.68398 -5.29964
upperback -0.363551 -2.23521 2.80307
thorax 0.169642 -1.11834 5.86515
lowerneck -26.6412 1.70021 -9.57611
upperneck 0.0254211 4.61453 6.30728
head 3.69148 2.64065 3.99271
rclavicle 1.41386e-014 -5.56597e-015
rhumerus -33.8553 -5.83689 -75.986
rradius 34.1926
rwrist 19.1313
rhand -22.3175 6.04881
rfingers 7.12502
rthumb 4.10215 -23.8914
lclavicle 1.41386e-014 -5.56597e-015
lhumerus 59.5501 10.4944 55.4497
lradius 95.648
lwrist -6.08801
lhand -32.1138 6.86431
lfingers 7.12502
lthumb -5.3586 36.7766
rfemur -7.95982 6.5326 12.2083
rtibia 27.7343
rfoot -18.4041 -2.84321
rtoes 3.17232
lfemur 1.21786 -2.05211 -24.4117
ltibia 11.8176
lfoot -10.5457 3.42443
ltoes -11.4612
589
root 0.0444309 17.9173 -0.747943 1.50889 -7.62637 3.61745
lowerback -0.40684 -1.69403 -5.35748
upperback -0.357021 -2.24847 2.78995
thorax 0.17908 -1.12545 5.8841
lowerneck -26.6098 1.73973 -9.42686
upperneck 0.0165676 4.62605 6.19213
head 3.68892 2.63865 3.93212
rclavicle -6.48535e-015 7.95139e-015
rhumerus -33.8346 -5.83315 -76.0048
rradius 34.2081
rwrist 19.1363
rhand -22.2312 6.0205
rfingers 7.12502
rthumb 4.18555 -23.9181
lclavicle -6.48535e-015 7.95139e-015
lhumerus 59.5523 10.4959 55.4218
lradius 95.6435
lwrist -6.07712
lhand -32.1293 6.70696
lfingers 7.12502
lthumb -5.37359 36.6188
rfemur -7.95166 6.51697 12.1723
rtibia 27.7637
rfoot -18.4257 -2.78757
rtoes 3.45596
lfemur 1.24533 -2.04966 -24.4441
ltibia 11.7952
lfoot -10.5408 3.40946
ltoes -11.3127
